# xmcd
#
# Track frame offsets:
#	150
#	16040
#	28127
#	37015
#	48395
#	64205
#	73970
#	83922
#	95650
#	109182
#
# Disc length: 1572 seconds
#
# Revision: 1
# Processed by: cddbd v1.4PL0 Copyright (c) Steve Scherf et al.
# Submitted via: audiograbber 1.81.02
#
DISCID=8906220a
DTITLE=Various Artist - Country Christmas Favorites
DYEAR=2000
DGENRE=Country
TTITLE0=Statler Brothers - An Old Fashioned Christmas
TTITLE1=Jerry Lee Lewis - I Can't Have A Merry Christmas Mary
TTITLE2=Loretta Lynn - Frosty The Snowman
TTITLE3=Ray Stevens - Greatest Christmas Ever Wuz
TTITLE4=Oak Ridge Boys - Blue Christmas
TTITLE5=Brenda Lee - Rockin' Around The Christmas Tree
TTITLE6=George Jones - Maybe Next Christmas
TTITLE7=Bob Willis - Santa's On His Way
TTITLE8=Lee Greenwood - I'll Be Home For Christmas
TTITLE9=Roger Miller - Silent Night
EXTD=
EXTT0=
EXTT1=
EXTT2=
EXTT3=
EXTT4=
EXTT5=
EXTT6=
EXTT7=
EXTT8=
EXTT9=
PLAYORDER=
